# xmcd CD database file
#
# Track frame offsets:
#	150
#	21357
#	38692
#	57042
#	72032
#	90405
#	114515
#	135287
#	158047
#	175457
#
# Disc length: 2607 seconds
#
# Revision: 2
# Processed by: cddbd v1.5.1PL0 Copyright (c) Steve Scherf et al.
# Submitted via: CDex 1.50
#
DISCID=740a2d0a
DTITLE=BeBe and CeCe Winans - BeBe and CeCe Winans
DYEAR=1987
DGENRE=Gospel
TTITLE0=I.O.U. Me
TTITLE1=I Don't Know Why
TTITLE2=For Always
TTITLE3=No Hiding Place
TTITLE4=Still In Love With You
TTITLE5=Call Me
TTITLE6=Love Said Not So
TTITLE7=Change Your Nature
TTITLE8=In Return
TTITLE9=He's Coming Soon
EXTD=YEAR: 1987
EXTT0=
EXTT1=
EXTT2=
EXTT3=
EXTT4=
EXTT5=
EXTT6=
EXTT7=
EXTT8=
EXTT9=
PLAYORDER=
